# xmcd CD database file
#
# Track frame offsets:
#	150
#	25815
#	69955
#	90397
#	118312
#	144770
#	164405
#	182320
#	204087
#	232437
#
# Disc length: 3302 seconds
#
# Revision: 0
# Processed by: cddbd v1.5.1PL0 Copyright (c) Steve Scherf et al.
# Submitted via: CDex 1.51
#
DISCID=7c0ce40a
DTITLE=David Ganc - Caldo de Cana
DYEAR=1999
DGENRE=Jazz
TTITLE0=Fica Mal Com Deus
TTITLE1=Divertimento
TTITLE2=Caldo de Cana
TTITLE3=Memento
TTITLE4=Noturno
TTITLE5=Na Tradição do Frevo
TTITLE6=Impressão de Choro
TTITLE7=Vó Argemiro
TTITLE8=Pro Marçal
TTITLE9=Inútil Paisagem
EXTD=YEAR: 1999
EXTT0=
EXTT1=
EXTT2=
EXTT3=
EXTT4=
EXTT5=
EXTT6=
EXTT7=
EXTT8=
EXTT9=
PLAYORDER=
